<?xml version="1.0" encoding="UTF-8" standalone="no"?>
<svg width="20px" height="22px" viewBox="0 0 20 22" version="1.1" xmlns="http://www.w3.org/2000/svg" xmlns:xlink="http://www.w3.org/1999/xlink">
    <!-- Generator: sketchtool 39.1 (31720) - http://www.bohemiancoding.com/sketch -->
    <title>4E898275-4737-4E2D-88B7-9E50669F5736</title>
    <desc>Created with sketchtool.</desc>
    <defs></defs>
    <g id="Wizard-Desktop" stroke="none" stroke-width="1" fill="none" fill-rule="evenodd">
        <g id="wizard-2.0-desktop-copy" transform="translate(-239.000000, -638.000000)" fill="#FEFEFE">
            <path d="M258.622504,648.231675 C258.119175,647.728422 257.304058,647.728422 256.80073,648.231675 L250.288383,654.743054 L250.288383,639.288191 C250.288383,638.57711 249.711187,638 249,638 C248.288813,638 247.711617,638.57711 247.711617,639.288191 L247.711617,654.743054 L241.19927,648.231675 C240.695942,647.728422 239.880825,647.728422 239.377496,648.231675 C238.874168,648.734929 238.874168,649.549925 239.377496,650.053178 L248.088684,658.763929 C248.340348,659.015556 248.670174,659.14094 249,659.14094 C249.329826,659.14094 249.658793,659.015556 249.910457,658.763929 L258.622504,650.053178 C259.125832,649.549925 259.125832,648.734929 258.622504,648.231675" id="arrow"></path>
        </g>
    </g>
</svg>